<svg xmlns="http://www.w3.org/2000/svg" width="40" height="40" viewBox="0 0 50 50" fill="none">
    <g clip-path="url(#clip0_1733_413)">
        <path d="M15.6136 5.73589V18.948C15.6136 20.378 14.4822 21.5379 13.0846 21.5379H0C0.665199 13.0232 7.29321 6.23055 15.6052 5.5481C15.6112 5.61069 15.6124 5.67207 15.6124 5.73589H15.6136Z" fill="#F4CE47"/>
        <path d="M33.9815 21.538H20.8969C19.5006 21.538 18.3679 20.3781 18.3679 18.9481V5.73602C18.3679 5.67219 18.3703 5.60959 18.3751 5.54822C26.6871 6.23067 33.3163 13.0233 33.9803 21.538H33.9815Z" fill="#F4CE47"/>
        <path d="M15.6136 26.9476V40.1609C15.6136 40.2235 15.6112 40.2849 15.6064 40.3475C7.29321 39.6638 0.665199 32.8736 0 24.3589H13.0846C14.4822 24.3589 15.6136 25.5176 15.6136 26.9476Z" fill="#F4CE47"/>
        <path d="M33.9814 24.3586C33.3162 32.8734 26.6882 39.6636 18.3762 40.346C18.3702 40.2834 18.369 40.222 18.369 40.1594V26.9461C18.369 25.5161 19.5017 24.3574 20.898 24.3574H33.9826L33.9814 24.3586Z" fill="#F4CE47"/>
    </g>
</svg>
